<mxfile host="app.diagrams.net" modified="2020-09-09T08:48:10.411Z" agent="5.0 (Windows NT 10.0; Win64; x64) AppleWebKit/537.36 (KHTML, like Gecko) Chrome/85.0.4183.83 Safari/537.36" etag="f8CtvGuY5tfGaIS_0HSM" version="13.6.9" type="github">
  <diagram id="C5RBs43oDa-KdzZeNtuy" name="Page-1">
    <mxGraphModel dx="1422" dy="804" grid="1" gridSize="10" guides="1" tooltips="1" connect="1" arrows="1" fold="1" page="1" pageScale="1" pageWidth="827" pageHeight="1169" math="0" shadow="0">
      <root>
        <mxCell id="WIyWlLk6GJQsqaUBKTNV-0" />
        <mxCell id="WIyWlLk6GJQsqaUBKTNV-1" parent="WIyWlLk6GJQsqaUBKTNV-0" />
        <mxCell id="TMX_mOvtHmscK2jUJvY5-0" style="edgeStyle=orthogonalEdgeStyle;rounded=0;orthogonalLoop=1;jettySize=auto;html=1;exitX=0.5;exitY=1;exitDx=0;exitDy=0;entryX=0.5;entryY=0;entryDx=0;entryDy=0;" parent="WIyWlLk6GJQsqaUBKTNV-1" source="TMX_mOvtHmscK2jUJvY5-1" target="TMX_mOvtHmscK2jUJvY5-9" edge="1">
          <mxGeometry relative="1" as="geometry" />
        </mxCell>
        <mxCell id="TMX_mOvtHmscK2jUJvY5-1" value="Module2 시작" style="rounded=1;whiteSpace=wrap;html=1;fontSize=12;glass=0;strokeWidth=1;shadow=0;" parent="WIyWlLk6GJQsqaUBKTNV-1" vertex="1">
          <mxGeometry x="330" y="119.06" width="130.5" height="50" as="geometry" />
        </mxCell>
        <mxCell id="TMX_mOvtHmscK2jUJvY5-8" style="edgeStyle=orthogonalEdgeStyle;rounded=0;orthogonalLoop=1;jettySize=auto;html=1;exitX=0.5;exitY=1;exitDx=0;exitDy=0;entryX=0.5;entryY=0;entryDx=0;entryDy=0;" parent="WIyWlLk6GJQsqaUBKTNV-1" source="TMX_mOvtHmscK2jUJvY5-9" target="TMX_mOvtHmscK2jUJvY5-11" edge="1">
          <mxGeometry relative="1" as="geometry" />
        </mxCell>
        <mxCell id="TMX_mOvtHmscK2jUJvY5-9" value="Settings 값 확인" style="shape=hexagon;perimeter=hexagonPerimeter2;whiteSpace=wrap;html=1;fixedSize=1;" parent="WIyWlLk6GJQsqaUBKTNV-1" vertex="1">
          <mxGeometry x="330" y="249.06" width="130.5" height="50" as="geometry" />
        </mxCell>
        <mxCell id="TMX_mOvtHmscK2jUJvY5-10" style="edgeStyle=orthogonalEdgeStyle;rounded=0;orthogonalLoop=1;jettySize=auto;html=1;exitX=0.5;exitY=1;exitDx=0;exitDy=0;entryX=0.5;entryY=0;entryDx=0;entryDy=0;" parent="WIyWlLk6GJQsqaUBKTNV-1" source="TMX_mOvtHmscK2jUJvY5-11" target="TMX_mOvtHmscK2jUJvY5-13" edge="1">
          <mxGeometry relative="1" as="geometry" />
        </mxCell>
        <mxCell id="TMX_mOvtHmscK2jUJvY5-11" value="값에 따른 Text, Audio 선택" style="rounded=0;whiteSpace=wrap;html=1;" parent="WIyWlLk6GJQsqaUBKTNV-1" vertex="1">
          <mxGeometry x="330" y="389.06" width="130.5" height="60" as="geometry" />
        </mxCell>
        <mxCell id="TMX_mOvtHmscK2jUJvY5-89" style="edgeStyle=orthogonalEdgeStyle;rounded=0;orthogonalLoop=1;jettySize=auto;html=1;exitX=0.5;exitY=1;exitDx=0;exitDy=0;entryX=0.5;entryY=0;entryDx=0;entryDy=0;endArrow=classic;endFill=1;" parent="WIyWlLk6GJQsqaUBKTNV-1" source="TMX_mOvtHmscK2jUJvY5-13" target="TMX_mOvtHmscK2jUJvY5-88" edge="1">
          <mxGeometry relative="1" as="geometry" />
        </mxCell>
        <mxCell id="TMX_mOvtHmscK2jUJvY5-13" value="Module&amp;nbsp;&lt;br&gt;Text, Audio 출력" style="shape=parallelogram;perimeter=parallelogramPerimeter;whiteSpace=wrap;html=1;fixedSize=1;" parent="WIyWlLk6GJQsqaUBKTNV-1" vertex="1">
          <mxGeometry x="330" y="539.06" width="130.5" height="55" as="geometry" />
        </mxCell>
        <mxCell id="TMX_mOvtHmscK2jUJvY5-91" value="상호작용 성공" style="edgeStyle=orthogonalEdgeStyle;rounded=0;orthogonalLoop=1;jettySize=auto;html=1;exitX=0.5;exitY=1;exitDx=0;exitDy=0;endArrow=classic;endFill=1;" parent="WIyWlLk6GJQsqaUBKTNV-1" source="TMX_mOvtHmscK2jUJvY5-32" target="TMX_mOvtHmscK2jUJvY5-37" edge="1">
          <mxGeometry relative="1" as="geometry" />
        </mxCell>
        <mxCell id="TMX_mOvtHmscK2jUJvY5-93" value="상호작용 없음" style="edgeStyle=orthogonalEdgeStyle;rounded=0;orthogonalLoop=1;jettySize=auto;html=1;exitX=1;exitY=0.5;exitDx=0;exitDy=0;endArrow=classic;endFill=1;" parent="WIyWlLk6GJQsqaUBKTNV-1" source="TMX_mOvtHmscK2jUJvY5-32" edge="1">
          <mxGeometry x="-0.3365" relative="1" as="geometry">
            <mxPoint x="400" y="769.06" as="targetPoint" />
            <Array as="points">
              <mxPoint x="501" y="859.06" />
              <mxPoint x="501" y="769.06" />
            </Array>
            <mxPoint as="offset" />
          </mxGeometry>
        </mxCell>
        <mxCell id="TMX_mOvtHmscK2jUJvY5-32" value="Hand 상호작용 여부" style="rhombus;whiteSpace=wrap;html=1;fillColor=none;" parent="WIyWlLk6GJQsqaUBKTNV-1" vertex="1">
          <mxGeometry x="315" y="819.06" width="161" height="80" as="geometry" />
        </mxCell>
        <mxCell id="TMX_mOvtHmscK2jUJvY5-94" value="목표도구 == 흙손" style="edgeStyle=orthogonalEdgeStyle;rounded=0;orthogonalLoop=1;jettySize=auto;html=1;exitX=1;exitY=0.5;exitDx=0;exitDy=0;entryX=0;entryY=0.5;entryDx=0;entryDy=0;endArrow=classic;endFill=1;" parent="WIyWlLk6GJQsqaUBKTNV-1" source="TMX_mOvtHmscK2jUJvY5-37" target="TMX_mOvtHmscK2jUJvY5-38" edge="1">
          <mxGeometry x="0.7766" relative="1" as="geometry">
            <Array as="points">
              <mxPoint x="570" y="1029.06" />
              <mxPoint x="570" y="204.06" />
            </Array>
            <mxPoint as="offset" />
          </mxGeometry>
        </mxCell>
        <mxCell id="TMX_mOvtHmscK2jUJvY5-99" value="목표도구 불일치" style="edgeStyle=orthogonalEdgeStyle;rounded=0;orthogonalLoop=1;jettySize=auto;html=1;exitX=0;exitY=0.5;exitDx=0;exitDy=0;entryX=0.459;entryY=1.017;entryDx=0;entryDy=0;entryPerimeter=0;endArrow=classic;endFill=1;" parent="WIyWlLk6GJQsqaUBKTNV-1" source="TMX_mOvtHmscK2jUJvY5-37" target="TMX_mOvtHmscK2jUJvY5-96" edge="1">
          <mxGeometry relative="1" as="geometry" />
        </mxCell>
        <mxCell id="TMX_mOvtHmscK2jUJvY5-100" value="목표도구 == 곱자" style="edgeStyle=orthogonalEdgeStyle;rounded=0;orthogonalLoop=1;jettySize=auto;html=1;exitX=1;exitY=0.5;exitDx=0;exitDy=0;entryX=0;entryY=0.5;entryDx=0;entryDy=0;endArrow=classic;endFill=1;" parent="WIyWlLk6GJQsqaUBKTNV-1" source="TMX_mOvtHmscK2jUJvY5-37" target="TMX_mOvtHmscK2jUJvY5-40" edge="1">
          <mxGeometry x="0.7289" relative="1" as="geometry">
            <Array as="points">
              <mxPoint x="570" y="1029.06" />
              <mxPoint x="570" y="409.06" />
            </Array>
            <mxPoint as="offset" />
          </mxGeometry>
        </mxCell>
        <mxCell id="TMX_mOvtHmscK2jUJvY5-103" value="목표도구 == 수준기" style="edgeStyle=orthogonalEdgeStyle;rounded=0;orthogonalLoop=1;jettySize=auto;html=1;exitX=1;exitY=0.5;exitDx=0;exitDy=0;entryX=0;entryY=0.5;entryDx=0;entryDy=0;endArrow=classic;endFill=1;" parent="WIyWlLk6GJQsqaUBKTNV-1" source="TMX_mOvtHmscK2jUJvY5-37" target="TMX_mOvtHmscK2jUJvY5-41" edge="1">
          <mxGeometry x="0.6796" relative="1" as="geometry">
            <Array as="points">
              <mxPoint x="570" y="1029.06" />
              <mxPoint x="570" y="619.06" />
            </Array>
            <mxPoint as="offset" />
          </mxGeometry>
        </mxCell>
        <mxCell id="TMX_mOvtHmscK2jUJvY5-105" value="목표도구 == 핸드 그라인더" style="edgeStyle=orthogonalEdgeStyle;rounded=0;orthogonalLoop=1;jettySize=auto;html=1;exitX=1;exitY=0.5;exitDx=0;exitDy=0;entryX=0;entryY=0.5;entryDx=0;entryDy=0;endArrow=classic;endFill=1;" parent="WIyWlLk6GJQsqaUBKTNV-1" source="TMX_mOvtHmscK2jUJvY5-37" target="TMX_mOvtHmscK2jUJvY5-42" edge="1">
          <mxGeometry x="0.5918" relative="1" as="geometry">
            <Array as="points">
              <mxPoint x="570" y="1029.06" />
              <mxPoint x="570" y="829.06" />
            </Array>
            <mxPoint as="offset" />
          </mxGeometry>
        </mxCell>
        <mxCell id="TMX_mOvtHmscK2jUJvY5-37" value="시공도구 종류" style="rhombus;whiteSpace=wrap;html=1;fillColor=none;" parent="WIyWlLk6GJQsqaUBKTNV-1" vertex="1">
          <mxGeometry x="315" y="989.06" width="161" height="80" as="geometry" />
        </mxCell>
        <mxCell id="TMX_mOvtHmscK2jUJvY5-78" style="edgeStyle=orthogonalEdgeStyle;rounded=0;orthogonalLoop=1;jettySize=auto;html=1;exitX=1;exitY=0.5;exitDx=0;exitDy=0;endArrow=classic;endFill=1;" parent="WIyWlLk6GJQsqaUBKTNV-1" source="TMX_mOvtHmscK2jUJvY5-38" target="TMX_mOvtHmscK2jUJvY5-71" edge="1">
          <mxGeometry relative="1" as="geometry" />
        </mxCell>
        <mxCell id="TMX_mOvtHmscK2jUJvY5-38" value="흙손" style="rounded=0;whiteSpace=wrap;html=1;" parent="WIyWlLk6GJQsqaUBKTNV-1" vertex="1">
          <mxGeometry x="820" y="174.06" width="210" height="60" as="geometry" />
        </mxCell>
        <mxCell id="TMX_mOvtHmscK2jUJvY5-79" style="edgeStyle=orthogonalEdgeStyle;rounded=0;orthogonalLoop=1;jettySize=auto;html=1;exitX=1;exitY=0.5;exitDx=0;exitDy=0;entryX=0;entryY=0.5;entryDx=0;entryDy=0;endArrow=classic;endFill=1;" parent="WIyWlLk6GJQsqaUBKTNV-1" source="TMX_mOvtHmscK2jUJvY5-40" target="TMX_mOvtHmscK2jUJvY5-72" edge="1">
          <mxGeometry relative="1" as="geometry" />
        </mxCell>
        <mxCell id="TMX_mOvtHmscK2jUJvY5-40" value="곱자" style="rounded=0;whiteSpace=wrap;html=1;" parent="WIyWlLk6GJQsqaUBKTNV-1" vertex="1">
          <mxGeometry x="820" y="379.06" width="210" height="60" as="geometry" />
        </mxCell>
        <mxCell id="TMX_mOvtHmscK2jUJvY5-80" style="edgeStyle=orthogonalEdgeStyle;rounded=0;orthogonalLoop=1;jettySize=auto;html=1;exitX=1;exitY=0.5;exitDx=0;exitDy=0;entryX=0;entryY=0.5;entryDx=0;entryDy=0;endArrow=classic;endFill=1;" parent="WIyWlLk6GJQsqaUBKTNV-1" source="TMX_mOvtHmscK2jUJvY5-41" target="TMX_mOvtHmscK2jUJvY5-73" edge="1">
          <mxGeometry relative="1" as="geometry" />
        </mxCell>
        <mxCell id="TMX_mOvtHmscK2jUJvY5-41" value="수준기" style="rounded=0;whiteSpace=wrap;html=1;" parent="WIyWlLk6GJQsqaUBKTNV-1" vertex="1">
          <mxGeometry x="820" y="589.06" width="210" height="60" as="geometry" />
        </mxCell>
        <mxCell id="TMX_mOvtHmscK2jUJvY5-81" style="edgeStyle=orthogonalEdgeStyle;rounded=0;orthogonalLoop=1;jettySize=auto;html=1;exitX=1;exitY=0.5;exitDx=0;exitDy=0;entryX=0;entryY=0.5;entryDx=0;entryDy=0;endArrow=classic;endFill=1;" parent="WIyWlLk6GJQsqaUBKTNV-1" source="TMX_mOvtHmscK2jUJvY5-42" target="TMX_mOvtHmscK2jUJvY5-74" edge="1">
          <mxGeometry relative="1" as="geometry" />
        </mxCell>
        <mxCell id="TMX_mOvtHmscK2jUJvY5-42" value="핸드 그라인더" style="rounded=0;whiteSpace=wrap;html=1;" parent="WIyWlLk6GJQsqaUBKTNV-1" vertex="1">
          <mxGeometry x="820" y="799.06" width="210" height="60" as="geometry" />
        </mxCell>
        <mxCell id="TMX_mOvtHmscK2jUJvY5-102" style="edgeStyle=orthogonalEdgeStyle;rounded=0;orthogonalLoop=1;jettySize=auto;html=1;exitX=1;exitY=0.5;exitDx=0;exitDy=0;endArrow=classic;endFill=1;" parent="WIyWlLk6GJQsqaUBKTNV-1" source="TMX_mOvtHmscK2jUJvY5-71" edge="1">
          <mxGeometry relative="1" as="geometry">
            <mxPoint x="1360" y="204.06" as="targetPoint" />
          </mxGeometry>
        </mxCell>
        <mxCell id="TMX_mOvtHmscK2jUJvY5-71" value="흙손의 설명 Text, Audio 출력" style="shape=parallelogram;perimeter=parallelogramPerimeter;whiteSpace=wrap;html=1;fixedSize=1;" parent="WIyWlLk6GJQsqaUBKTNV-1" vertex="1">
          <mxGeometry x="1091" y="174.06" width="200" height="60" as="geometry" />
        </mxCell>
        <mxCell id="TMX_mOvtHmscK2jUJvY5-107" style="edgeStyle=orthogonalEdgeStyle;rounded=0;orthogonalLoop=1;jettySize=auto;html=1;exitX=1;exitY=0.5;exitDx=0;exitDy=0;entryX=0;entryY=0.5;entryDx=0;entryDy=0;endArrow=classic;endFill=1;" parent="WIyWlLk6GJQsqaUBKTNV-1" source="TMX_mOvtHmscK2jUJvY5-72" target="TMX_mOvtHmscK2jUJvY5-106" edge="1">
          <mxGeometry relative="1" as="geometry" />
        </mxCell>
        <mxCell id="TMX_mOvtHmscK2jUJvY5-72" value="곱자의 설명 Text, Audio 출력" style="shape=parallelogram;perimeter=parallelogramPerimeter;whiteSpace=wrap;html=1;fixedSize=1;" parent="WIyWlLk6GJQsqaUBKTNV-1" vertex="1">
          <mxGeometry x="1091" y="379.06" width="200" height="60" as="geometry" />
        </mxCell>
        <mxCell id="TMX_mOvtHmscK2jUJvY5-109" style="edgeStyle=orthogonalEdgeStyle;rounded=0;orthogonalLoop=1;jettySize=auto;html=1;exitX=1;exitY=0.5;exitDx=0;exitDy=0;entryX=0;entryY=0.5;entryDx=0;entryDy=0;endArrow=classic;endFill=1;" parent="WIyWlLk6GJQsqaUBKTNV-1" source="TMX_mOvtHmscK2jUJvY5-73" target="TMX_mOvtHmscK2jUJvY5-108" edge="1">
          <mxGeometry relative="1" as="geometry" />
        </mxCell>
        <mxCell id="TMX_mOvtHmscK2jUJvY5-73" value="수준기의 설명 Text, Audio 출력" style="shape=parallelogram;perimeter=parallelogramPerimeter;whiteSpace=wrap;html=1;fixedSize=1;" parent="WIyWlLk6GJQsqaUBKTNV-1" vertex="1">
          <mxGeometry x="1091" y="589.06" width="200" height="60" as="geometry" />
        </mxCell>
        <mxCell id="TMX_mOvtHmscK2jUJvY5-112" style="edgeStyle=orthogonalEdgeStyle;rounded=0;orthogonalLoop=1;jettySize=auto;html=1;exitX=1;exitY=0.5;exitDx=0;exitDy=0;entryX=0;entryY=0.5;entryDx=0;entryDy=0;endArrow=classic;endFill=1;" parent="WIyWlLk6GJQsqaUBKTNV-1" source="TMX_mOvtHmscK2jUJvY5-74" target="TMX_mOvtHmscK2jUJvY5-110" edge="1">
          <mxGeometry relative="1" as="geometry" />
        </mxCell>
        <mxCell id="TMX_mOvtHmscK2jUJvY5-74" value="핸드 그라인더의 설명&lt;br&gt;Text, Audio 출력" style="shape=parallelogram;perimeter=parallelogramPerimeter;whiteSpace=wrap;html=1;fixedSize=1;" parent="WIyWlLk6GJQsqaUBKTNV-1" vertex="1">
          <mxGeometry x="1091" y="799.06" width="200" height="60" as="geometry" />
        </mxCell>
        <mxCell id="TMX_mOvtHmscK2jUJvY5-90" style="edgeStyle=orthogonalEdgeStyle;rounded=0;orthogonalLoop=1;jettySize=auto;html=1;exitX=0.5;exitY=1;exitDx=0;exitDy=0;entryX=0.5;entryY=0;entryDx=0;entryDy=0;endArrow=classic;endFill=1;" parent="WIyWlLk6GJQsqaUBKTNV-1" source="TMX_mOvtHmscK2jUJvY5-88" target="TMX_mOvtHmscK2jUJvY5-32" edge="1">
          <mxGeometry relative="1" as="geometry" />
        </mxCell>
        <mxCell id="TMX_mOvtHmscK2jUJvY5-88" value="목표도구 = 흙손" style="shape=hexagon;perimeter=hexagonPerimeter2;whiteSpace=wrap;html=1;fixedSize=1;" parent="WIyWlLk6GJQsqaUBKTNV-1" vertex="1">
          <mxGeometry x="322.5" y="679.06" width="145.5" height="50" as="geometry" />
        </mxCell>
        <mxCell id="TMX_mOvtHmscK2jUJvY5-98" style="edgeStyle=orthogonalEdgeStyle;rounded=0;orthogonalLoop=1;jettySize=auto;html=1;exitX=0.5;exitY=0;exitDx=0;exitDy=0;endArrow=classic;endFill=1;" parent="WIyWlLk6GJQsqaUBKTNV-1" source="TMX_mOvtHmscK2jUJvY5-96" edge="1">
          <mxGeometry relative="1" as="geometry">
            <mxPoint x="390" y="769.06" as="targetPoint" />
            <Array as="points">
              <mxPoint x="155" y="769.06" />
            </Array>
          </mxGeometry>
        </mxCell>
        <mxCell id="TMX_mOvtHmscK2jUJvY5-96" value="&lt;span&gt;&quot;잘못선택하셨습니다&quot;&lt;/span&gt;&lt;br&gt;&lt;span&gt;Text, Audio 출력&lt;/span&gt;" style="shape=parallelogram;perimeter=parallelogramPerimeter;whiteSpace=wrap;html=1;fixedSize=1;" parent="WIyWlLk6GJQsqaUBKTNV-1" vertex="1">
          <mxGeometry x="80" y="919.06" width="170" height="60" as="geometry" />
        </mxCell>
        <mxCell id="TMX_mOvtHmscK2jUJvY5-114" style="edgeStyle=orthogonalEdgeStyle;rounded=0;orthogonalLoop=1;jettySize=auto;html=1;exitX=1;exitY=0.5;exitDx=0;exitDy=0;endArrow=classic;endFill=1;" parent="WIyWlLk6GJQsqaUBKTNV-1" source="TMX_mOvtHmscK2jUJvY5-106" edge="1">
          <mxGeometry relative="1" as="geometry">
            <mxPoint x="400" y="769.06" as="targetPoint" />
            <Array as="points">
              <mxPoint x="1550" y="409.06" />
              <mxPoint x="1550" y="99.06" />
              <mxPoint x="500" y="99.06" />
              <mxPoint x="500" y="769.06" />
            </Array>
          </mxGeometry>
        </mxCell>
        <mxCell id="TMX_mOvtHmscK2jUJvY5-106" value="목표도구 = 수준기" style="shape=hexagon;perimeter=hexagonPerimeter2;whiteSpace=wrap;html=1;fixedSize=1;" parent="WIyWlLk6GJQsqaUBKTNV-1" vertex="1">
          <mxGeometry x="1360" y="379.06" width="130" height="60" as="geometry" />
        </mxCell>
        <mxCell id="TMX_mOvtHmscK2jUJvY5-115" style="edgeStyle=orthogonalEdgeStyle;rounded=0;orthogonalLoop=1;jettySize=auto;html=1;exitX=1;exitY=0.5;exitDx=0;exitDy=0;endArrow=classic;endFill=1;" parent="WIyWlLk6GJQsqaUBKTNV-1" source="TMX_mOvtHmscK2jUJvY5-108" edge="1">
          <mxGeometry relative="1" as="geometry">
            <mxPoint x="400" y="769.06" as="targetPoint" />
            <Array as="points">
              <mxPoint x="1570" y="619.06" />
              <mxPoint x="1570" y="99.06" />
              <mxPoint x="520" y="99.06" />
              <mxPoint x="520" y="769.06" />
            </Array>
          </mxGeometry>
        </mxCell>
        <mxCell id="TMX_mOvtHmscK2jUJvY5-108" value="목표도구 = &lt;br&gt;핸드 그라인더" style="shape=hexagon;perimeter=hexagonPerimeter2;whiteSpace=wrap;html=1;fixedSize=1;" parent="WIyWlLk6GJQsqaUBKTNV-1" vertex="1">
          <mxGeometry x="1360" y="589.06" width="130" height="60" as="geometry" />
        </mxCell>
        <mxCell id="TMX_mOvtHmscK2jUJvY5-110" value="Module2 끝" style="rounded=1;whiteSpace=wrap;html=1;fontSize=12;glass=0;strokeWidth=1;shadow=0;" parent="WIyWlLk6GJQsqaUBKTNV-1" vertex="1">
          <mxGeometry x="1350" y="799.06" width="135" height="60" as="geometry" />
        </mxCell>
        <mxCell id="TMX_mOvtHmscK2jUJvY5-113" style="edgeStyle=orthogonalEdgeStyle;rounded=0;orthogonalLoop=1;jettySize=auto;html=1;exitX=1;exitY=0.5;exitDx=0;exitDy=0;endArrow=classic;endFill=1;" parent="WIyWlLk6GJQsqaUBKTNV-1" source="TMX_mOvtHmscK2jUJvY5-111" edge="1">
          <mxGeometry relative="1" as="geometry">
            <mxPoint x="400" y="769.06" as="targetPoint" />
            <Array as="points">
              <mxPoint x="1530" y="204.06" />
              <mxPoint x="1530" y="99.06" />
              <mxPoint x="540" y="99.06" />
              <mxPoint x="540" y="769.06" />
            </Array>
          </mxGeometry>
        </mxCell>
        <mxCell id="TMX_mOvtHmscK2jUJvY5-111" value="목표도구 = 곱자" style="shape=hexagon;perimeter=hexagonPerimeter2;whiteSpace=wrap;html=1;fixedSize=1;" parent="WIyWlLk6GJQsqaUBKTNV-1" vertex="1">
          <mxGeometry x="1360" y="174.06" width="130" height="60" as="geometry" />
        </mxCell>
      </root>
    </mxGraphModel>
  </diagram>
</mxfile>
